<?xml version="1.0" encoding="utf-8"?>
<!-- Svg Vector Icons : http://www.onlinewebfonts.com/icon -->
<!DOCTYPE svg PUBLIC "-//W3C//DTD SVG 1.1//EN" "http://www.w3.org/Graphics/SVG/1.1/DTD/svg11.dtd">
<svg version="1.1" xmlns="http://www.w3.org/2000/svg" xmlns:xlink="http://www.w3.org/1999/xlink" x="0px" y="0px" viewBox="0 0 1000 1000" enable-background="new 0 0 1000 1000" xml:space="preserve">
<metadata> Svg Vector Icons : http://www.onlinewebfonts.com/icon </metadata>
<g><g><path d="M670.4,654.1c-8.7,0-15.8,7.1-15.8,15.8v288.5H189.1V826.7c0-8.7-7.1-15.8-15.8-15.8H41.6V41.6h613v288.5c0,8.7,7.1,15.8,15.8,15.8c8.7,0,15.8-7.1,15.8-15.8V25.8c0-8.7-7.1-15.8-15.8-15.8H25.8C17.1,10,10,17.1,10,25.8v800.9c0,0.5,0,1.1,0.1,1.6c0,0.4,0.1,0.8,0.2,1.1c0,0.1,0,0.3,0.1,0.4c0.1,0.4,0.2,0.9,0.3,1.3c0,0.1,0,0.1,0,0.2c0.1,0.4,0.3,0.9,0.5,1.3c0,0.1,0,0.1,0.1,0.2c0.2,0.4,0.4,0.8,0.6,1.2c0,0.1,0.1,0.2,0.1,0.2c0.2,0.4,0.4,0.7,0.6,1c0.1,0.1,0.1,0.2,0.2,0.3c0.2,0.3,0.4,0.6,0.7,0.9c0.1,0.1,0.2,0.2,0.2,0.3c0.3,0.4,0.7,0.8,1,1.1l147.5,147.5c0.4,0.4,0.7,0.7,1.1,1c0.1,0.1,0.2,0.2,0.3,0.2c0.3,0.2,0.6,0.5,0.9,0.7c0.1,0.1,0.2,0.1,0.3,0.2c0.3,0.2,0.7,0.4,1,0.6c0.1,0,0.2,0.1,0.2,0.1c0.4,0.2,0.8,0.4,1.2,0.6c0.1,0,0.1,0,0.2,0.1c0.4,0.2,0.8,0.3,1.3,0.5c0.1,0,0.1,0,0.2,0c0.4,0.1,0.9,0.2,1.3,0.3c0.1,0,0.3,0,0.4,0.1c0.4,0.1,0.7,0.1,1.1,0.2c0.5,0.1,1,0.1,1.6,0.1h497.1c8.7,0,15.8-7.1,15.8-15.8V669.9C686.3,661.2,679.2,654.1,670.4,654.1z M157.5,936L64,842.5h93.6V936z"/><path d="M565.1,863.6c8.7,0,15.8-7.1,15.8-15.8c0-8.7-7.1-15.8-15.8-15.8H429.3c-8.7,0-15.8,7.1-15.8,15.8c0,8.7,7.1,15.8,15.8,15.8H565.1z"/><path d="M565.1,157.5H131.2c-8.7,0-15.8,7.1-15.8,15.8c0,8.7,7.1,15.8,15.8,15.8h433.9c8.7,0,15.8-7.1,15.8-15.8C580.9,164.6,573.8,157.5,565.1,157.5z"/><path d="M565.1,241.8H131.2c-8.7,0-15.8,7.1-15.8,15.8c0,8.7,7.1,15.8,15.8,15.8h433.9c8.7,0,15.8-7.1,15.8-15.8C580.9,248.9,573.8,241.8,565.1,241.8z"/><path d="M565.1,326.1H131.2c-8.7,0-15.8,7.1-15.8,15.8c0,8.7,7.1,15.8,15.8,15.8h433.9c8.7,0,15.8-7.1,15.8-15.8C580.9,333.2,573.8,326.1,565.1,326.1z"/><path d="M580.9,426.2c0-8.7-7.1-15.8-15.8-15.8H131.2c-8.7,0-15.8,7.1-15.8,15.8c0,8.7,7.1,15.8,15.8,15.8h433.9C573.8,442,580.9,435,580.9,426.2z"/><path d="M505.8,510.5c0-8.7-7.1-15.8-15.8-15.8H131.2c-8.7,0-15.8,7.1-15.8,15.8c0,8.7,7.1,15.8,15.8,15.8H490C498.7,526.3,505.8,519.3,505.8,510.5z"/><path d="M131.2,579c-8.7,0-15.8,7.1-15.8,15.8c0,8.7,7.1,15.8,15.8,15.8h216.9c8.7,0,15.8-7.1,15.8-15.8c0-8.7-7.1-15.8-15.8-15.8H131.2z"/><path d="M968.7,201.7c-13.7-13.7-32-21.3-51.4-21.3s-37.7,7.6-51.4,21.3l-49.2,49.2h0h0L772,295.6h0c0,0,0,0,0,0L452.5,615.1c-0.4,0.4-0.8,0.9-1.2,1.4c-0.1,0.1-0.2,0.3-0.3,0.4c-0.3,0.4-0.6,0.8-0.8,1.2c0,0.1-0.1,0.1-0.1,0.2L357,776.4c-3.9,4.7-6.1,10.6-6.1,16.8c0,7,2.7,13.7,7.7,18.6c5,5,11.6,7.7,18.6,7.7c6.2,0,12.1-2.1,16.8-6.1l158.1-93.1c0.1,0,0.1-0.1,0.2-0.1c0.4-0.2,0.8-0.5,1.2-0.8c0.1-0.1,0.3-0.2,0.4-0.3c0.5-0.4,0.9-0.8,1.4-1.2l319.5-319.5c0,0,0,0,0,0s0,0,0,0l44.7-44.7h0h0l49.2-49.2C997.1,276.2,997.1,230.1,968.7,201.7z M863.7,364.9l-58.1-58.1l22.4-22.4l58.1,58.1L863.7,364.9z M544.1,684.4L486,626.3l297.2-297.2l58.1,58.1L544.1,684.4z M452.9,742.2l-24.6-24.6l38.7-65.7l51.6,51.6L452.9,742.2z M393.1,777.4l18.7-31.7l13,13L393.1,777.4z M946.4,282.2l-38,38l-58.1-58.1l38-38c7.7-7.7,18.1-12,29.1-12s21.3,4.3,29.1,12c7.7,7.7,12,18.1,12,29.1S954.1,274.4,946.4,282.2z"/></g><g></g><g></g><g></g><g></g><g></g><g></g><g></g><g></g><g></g><g></g><g></g><g></g><g></g><g></g><g></g></g>
</svg>