<?xml version="1.0" encoding="utf-8"?>
<!-- Svg Vector Icons : http://www.onlinewebfonts.com/icon -->
<!DOCTYPE svg PUBLIC "-//W3C//DTD SVG 1.1//EN" "http://www.w3.org/Graphics/SVG/1.1/DTD/svg11.dtd">
<svg version="1.1" xmlns="http://www.w3.org/2000/svg" xmlns:xlink="http://www.w3.org/1999/xlink" x="0px" y="0px" viewBox="0 0 1000 1000" enable-background="new 0 0 1000 1000" xml:space="preserve">
<metadata> Svg Vector Icons : http://www.onlinewebfonts.com/icon </metadata>
<g><g transform="translate(0.000000,512.000000) scale(0.100000,-0.100000)"><path d="M1662.9,4131.6v-888.4l-685.5-417.4c-375.3-227.9-691.2-423.2-700.8-430.8c-15.3-13.4,302.5-561,361.9-628c21.1-21.1,68.9,1.9,291,137.9l264.2,164.7l9.6-2094.7l9.6-2096.6l63.2-61.3l61.3-63.2l1941.5-5.7l1939.6-3.8l32.5,193.4c17.2,107.2,40.2,210.6,51.7,229.8c17.2,36.4-24.9,36.4-1811.3,36.4H1662.9l3.8,2079.4l5.7,2079.4l1491.6,915.2l1491.6,915.2l183.8-113c101.5-63.2,769.7-472.9,1485.8-913.3l1302-798.4l5.7-348.5l3.8-348.5l84.2,34.5c44,21.1,147.4,51.7,227.8,68.9l145.5,32.6l5.7,132.1l5.7,134l235.5-145.5c130.2-78.5,252.7-153.2,271.9-162.7c30.6-17.2,59.3,19.2,229.8,298.7c107.2,174.2,187.6,325.5,180,333.2c-47.9,46-4202.8,2583-4266,2604c-151.3,49.8-176.2,36.4-1202.5-593.6l-963.1-589.7l-5.7,601.2L2582,5020h-459.5h-459.5V4131.6z"/><path d="M4458.4,2913.8c-32.6-32.5-38.3-63.2-38.3-208.7c0-162.8-1.9-174.2-49.8-210.6c-28.7-23-63.2-40.2-78.5-40.2c-15.3,0-91.9-28.7-168.5-65.1c-185.7-86.2-335.1-225.9-417.4-392.5c-57.4-118.7-61.3-137.9-61.3-337c0-191.5,3.8-220.2,53.6-319.8c103.4-210.6,363.8-396.3,744.8-528.5c421.2-149.4,578.2-296.8,513.1-492.1c-59.4-178.1-337-260.4-681.6-201c-61.3,11.5-193.4,47.9-289.1,80.4c-243.2,82.3-250.8,78.5-319.8-181.9c-44-162.8-49.8-208.7-30.6-241.3c36.4-70.8,254.7-147.4,545.7-193.4c185.7-28.7,201-47.9,201-233.6c0-206.8,21.1-225.9,235.5-225.9c212.5,0,224,13.4,224,237.4c0,91.9,7.7,183.8,19.1,202.9c11.5,21.1,65.1,49.8,128.3,67c480.6,139.8,746.7,520.8,677.8,966.9c-26.8,164.7-76.6,277.6-176.2,390.6c-132.1,149.4-264.2,224-706.5,394.4c-212.5,82.3-377.2,181.9-411.7,248.9c-70.8,135.9-7.7,275.7,153.2,337c126.4,47.9,465.3,28.7,668.2-36.4c193.4-63.2,227.8-51.7,268.1,84.2c61.3,206.8,78.5,317.8,51.7,350.4c-34.5,40.2-291,120.6-442.3,137.9c-166.6,19.1-191.5,47.9-191.5,218.3c0,118.7-5.7,141.7-47.9,181.9c-40.2,42.1-63.2,47.9-191.5,47.9C4521.6,2952.1,4489,2944.4,4458.4,2913.8z"/><path d="M8040.8,1324.6c-254.7-53.6-511.2-252.7-624.2-486.3c-122.5-250.8-120.6-415.5,7.7-1047.3c103.4-503.6,135.9-742.9,135.9-972.7v-193.4l-51.7-21.1c-181.9-69-250.8-302.5-135.9-461.5c24.9-36.4,32.5-63.2,21.1-74.7c-11.5-11.5-237.4,21.1-614.6,88.1c-329.3,57.4-635.7,105.3-683.6,105.3c-135.9,0-268.1-80.4-331.3-201c-28.7-55.5-141.7-624.2-126.4-639.5c15.3-17.2,3982.6-706.5,3992.2-695c19.2,23,93.8,490.2,93.8,585.9c0,153.2-88.1,291-222.1,348.5c-32.5,13.4-335.1,72.8-670.1,132.1c-335.1,59.3-618.5,114.9-628,124.5c-9.6,9.6,17.2,47.9,61.3,90c141.7,135.9,151.3,321.7,19.2,451.9l-57.4,57.4l44,116.8c68.9,193.4,220.2,476.8,486.4,921c348.5,576.3,363.8,616.5,363.8,880.8c-1.9,174.2-7.7,229.8-46,321.7c-95.7,241.3-323.6,459.5-557.2,538C8393.2,1334.2,8159.5,1349.5,8040.8,1324.6z"/><path d="M5758.5-2719.3c-3.8-13.4-68.9-369.5-67-371.4c7.7-9.6,3699.2-652.9,3705-647.2c5.8,3.8,23,90,40.2,189.6l32.6,180l-97.7,19.2c-118.7,24.9-3582.4,633.8-3599.7,633.8C5766.2-2715.5,5760.4-2717.4,5758.5-2719.3z"/><path d="M6947.5-4067.3c-225.9-21.1-643.3-88.1-779.3-128.3c-783.1-225.9-170.4-534.2,1152.7-580.2c848.2-30.6,1723.2,107.2,1893.7,296.8c88.1,95.7-46,210.6-337,289.1c-335.1,90-620.4,118.7-1250.3,124.4C7301.8-4063.5,6995.4-4063.5,6947.5-4067.3z"/></g></g>
</svg>