<?xml version="1.0" encoding="utf-8"?>
<!-- Svg Vector Icons : http://www.onlinewebfonts.com/icon -->
<!DOCTYPE svg PUBLIC "-//W3C//DTD SVG 1.1//EN" "http://www.w3.org/Graphics/SVG/1.1/DTD/svg11.dtd">
<svg version="1.1" xmlns="http://www.w3.org/2000/svg" xmlns:xlink="http://www.w3.org/1999/xlink" x="0px" y="0px" viewBox="0 0 1000 1000" enable-background="new 0 0 1000 1000" xml:space="preserve">
<metadata> Svg Vector Icons : http://www.onlinewebfonts.com/icon </metadata>
<g><path d="M505.4,559.6c143.2,0,259.3-116.1,259.3-259.3c0-143.2-116.1-259.3-259.3-259.3c-143.2,0-259.3,116.1-259.3,259.3C246.1,443.6,362.2,559.6,505.4,559.6z M505.4,69.6c127.4,0,230.7,103.3,230.7,230.7S632.9,531.1,505.4,531.1S274.7,427.8,274.7,300.3S378,69.6,505.4,69.6z"/><path d="M343.7,755.2c-7.5-6.8-12.1-11.6-12.8-12.3l-37.5-40l50.8,20.8c0.7,0.3,72.7,29.5,122.5,29.5h155.2c11.2-0.5,51.7-5.9,51.7-24.5c0-16.9,0-24.6-102.1-24.6c-65.7,0-130.5-37.4-133.2-39l-1-0.7c-0.6-0.5-63.9-46.7-83-58.6c-2.2-1.4-4.4-2.8-6.6-4.2c-28.1-17.7-52.4-33-86.2-33c-18.3,0-38.4,4.4-61.4,13.5c-41.3,16.3-123.3,53.9-152.6,67.4l93.1,206.6l41.2-26.8c16.5-10.5,30.9-17.4,47.6-17.4c13.6,0,27.8,4.3,47.6,14.5c9,4.6,22.6,11.7,38.4,19.9c46.8,24.2,117.4,60.7,138.5,71c24.5,11.9,45.9,17.7,65.4,17.7c29.2,0,50.1-13.1,72.2-26.9c5.3-3.4,10.9-6.8,16.4-10C644,877.3,895.1,711,921.3,692.4c23.8-16.8,36.8-31.5,38.6-43.9c0.9-6.1-0.9-12-5.8-18.3c-7.5-9.7-18.4-14.7-32.3-14.7c-17.3,0-38.6,7.4-63.4,22.1l-23.7,14l6-26.8c1.7-7.5,0.5-13.9-3.5-18.9c-5.2-6.4-14.7-10.3-25.6-10.3c-25.2,0-45.7,7.9-61,23.4l-9.7,9.8l-8.3-11c-12.2-16-23.2-22.8-36.9-22.8c-15.5,0-36.4,8.7-67.9,28.2c-12.6,7.8-56.3,31.1-56.3,31.1l-53.1-9.2c0,0,72.6-40.5,96.9-55.6c35.9-22.3,60-18.4,80.5-18.4c18,0,33.3,7.2,47.7,22.4c18.5-14.3,41.8-21.9,68.3-21.9c18.3,0,34.4,7,44.2,19.2c3.9,4.9,6.7,10.5,8.2,16.6c21.4-10.5,40.8-15.8,57.9-15.8c27.1,0,42.8,13,51.2,24c8.9,11.5,12.4,23.8,10.5,36.4c-3,19.6-18.4,38.6-48.5,59.8c-26.3,18.6-278.8,185.9-315.3,206.9c-5.2,3-10.3,6.2-15.7,9.6c-22.8,14.3-48.7,30.6-84.8,30.6c0,0,0,0,0,0c-23.2,0-48-6.6-75.8-20.1c-21.4-10.3-89.4-45.5-139-71.2c-15.8-8.2-29.4-15.2-38.4-19.8c-15.9-8.2-27.2-11.8-36.7-11.8c-9.7,0-19.1,3.7-34.8,13.7l-64.4,41.8L16,638l10.7-5c4.6-2.1,113.3-52.7,164.6-72.9c25.9-10.2,48.8-15.1,70.2-15.1c40.6,0,68.9,17.8,98.9,36.6c2.2,1.4,4.4,2.7,6.6,4.1c19.1,11.9,77.2,54.3,83.9,59.1c5.9,3.3,64.3,35.4,120.7,35.4c87.3,0,125.9,2,125.9,48.4c0,46.2-74.6,48.3-75.3,48.3H466.6c-21.6,0-46.3-4.7-68.4-10.5L343.7,755.2L343.7,755.2z"/><path d="M505.4,565.6c-146.3,0-265.3-119-265.3-265.3c0-146.3,119-265.3,265.3-265.3s265.3,119,265.3,265.3C770.7,446.6,651.7,565.6,505.4,565.6z M505.4,47c-139.7,0-253.3,113.6-253.3,253.3c0,139.7,113.6,253.3,253.3,253.3c139.7,0,253.3-113.6,253.3-253.3C758.8,160.7,645.1,47,505.4,47z M505.4,537c-130.5,0-236.7-106.2-236.7-236.7c0-130.5,106.2-236.7,236.7-236.7s236.7,106.2,236.7,236.7C742.1,430.9,635.9,537,505.4,537z M505.4,75.6c-123.9,0-224.8,100.8-224.8,224.8s100.8,224.8,224.8,224.8c123.9,0,224.8-100.8,224.8-224.8C730.2,176.4,629.4,75.6,505.4,75.6z"/><path d="M519.2,964.9c-24.1,0-49.7-6.8-78.4-20.7c-21.3-10.3-89.1-45.4-138.6-71l-0.5-0.3c-15.8-8.2-29.4-15.2-38.4-19.8c-15-7.7-25.5-11.2-33.9-11.2c-8.4,0-17,3.4-31.6,12.7l-64.4,41.8c-1.5,0.9-3.3,1.2-4.9,0.7c-1.7-0.5-3-1.7-3.8-3.3L10.5,640.5c-1.3-3,0-6.5,2.9-7.9l10.7-5c4.6-2.1,113.5-52.8,164.9-73c26.6-10.5,50.3-15.6,72.4-15.6c42.4,0,71.3,18.2,102,37.6c2.2,1.4,4.4,2.8,6.6,4.1c19,11.9,76.1,53.5,83.9,59.2c7.6,4.3,63.5,34.5,117.5,34.5c82.2,0,131.9,0,131.9,54.4c0,51.9-80.5,54.3-81.3,54.3H466.6c-19.2,0-42.7-3.6-69.8-10.7L342.5,761c-1-0.2-2-0.7-2.8-1.4c-7.7-6.9-12.3-11.8-13.1-12.7L289,707c-1.9-2-2.2-5.2-0.6-7.5c1.6-2.3,4.6-3.2,7.2-2.1l50.8,20.8c0.7,0.3,71.7,29.1,120.2,29.1h155.1c16.5-0.7,45.9-7.5,45.9-18.5c0-8,0-10.2-8.6-12.9c-12.4-3.9-39.4-5.7-87.5-5.7c-67.3,0-133.5-38.1-136.2-39.8c-0.1-0.1-0.2-0.1-0.3-0.2l-1-0.7c-0.1-0.1-0.2-0.1-0.3-0.2c-0.6-0.5-63.9-46.6-82.6-58.3c-2-1.2-3.9-2.5-5.8-3.7l-0.8-0.5c-27.3-17.2-51-32.1-83-32.1c-17.5,0-36.9,4.3-59.2,13.1C163.6,603,90.2,636.5,55.3,652.6l87.8,194.9l35.4-23c17.4-11.1,32.7-18.4,50.9-18.4c14.6,0,29.7,4.5,50.3,15.1c9,4.6,22.6,11.7,38.4,19.8l0.2,0.1c46.7,24.1,117.2,60.6,138.2,70.8c23.7,11.5,44.3,17.1,62.8,17.1c27.5,0,47.7-12.6,69-26c5.4-3.4,10.9-6.8,16.6-10.1c36.1-20.8,286.8-186.9,313-205.4c27.9-19.7,35.1-32.6,36.2-39.9c0.7-4.5-0.7-8.7-4.6-13.8c-6.4-8.3-15.4-12.4-27.6-12.4c-16.2,0-36.5,7.2-60.4,21.3l-23.7,14c-2,1.2-4.6,1.1-6.5-0.3c-1.9-1.4-2.8-3.8-2.3-6.1l5.9-26.8c1.3-5.8,0.5-10.3-2.4-13.9c-4-5-12-8.1-20.9-8.1c-23.5,0-42.6,7.3-56.8,21.6l-9.7,9.8c-1.2,1.2-2.9,1.9-4.6,1.8c-1.7-0.1-3.3-1-4.4-2.3l-8.3-11c-11-14.5-20.4-20.5-32.2-20.5c-14.1,0-34.7,8.7-64.7,27.3c-12.6,7.8-54.8,30.3-56.6,31.3c-1.2,0.6-2.5,0.8-3.8,0.6l-53.1-9.2c-2.5-0.4-4.4-2.4-4.9-4.9c-0.4-2.5,0.8-5,3-6.2c0.7-0.4,72.8-40.7,96.6-55.5c27.8-17.2,49.3-19.5,66.8-19.5c3.1,0,6.1,0.1,9,0.1c2.7,0.1,5.3,0.1,7.8,0.1c18.1,0,33.9,6.7,48.3,20.5c18.8-13.1,42.1-20,67.7-20c20.1,0,37.9,7.8,48.8,21.4c3,3.7,5.3,7.7,7.1,12c19.8-9,38.1-13.5,54.3-13.5c29.5,0,46.7,14.3,56,26.3c9.9,12.8,13.8,26.6,11.6,40.9c-3.2,21.3-19.4,41.6-50.9,63.8C912.1,735.4,659.3,902.9,622.8,924c-5.1,2.9-10.1,6.1-15.5,9.4C583.7,948.2,557.1,964.9,519.2,964.9L519.2,964.9z M229.3,830c10.4,0,22.6,3.9,39.4,12.5c9,4.6,22.6,11.7,38.4,19.8l0.5,0.3c49.4,25.6,117.2,60.6,138.4,70.9c27,13.1,51,19.5,73.2,19.5h0c34.4,0,59.5-15.8,81.7-29.7c5.5-3.4,10.6-6.6,15.9-9.7c36.4-21,288.5-188,314.8-206.6c28.7-20.2,43.3-38,46-55.8c1.7-11-1.5-21.7-9.3-31.9c-7.6-9.9-21.8-21.7-46.5-21.7c-16.1,0-34.7,5.1-55.3,15.2c-1.6,0.8-3.5,0.8-5.1,0.1c-1.6-0.8-2.8-2.2-3.3-4c-1.3-5.3-3.7-10.1-7-14.3c-8.7-10.8-23.1-17-39.5-17c-24.9,0-47.3,7.1-64.6,20.6c-2.4,1.9-5.9,1.6-8-0.6c-13.2-14-27-20.6-43.3-20.6c-2.6,0-5.3-0.1-8.1-0.1c-2.8-0.1-5.8-0.1-8.7-0.1c-16.6,0-35.3,2.1-60.5,17.7c-17.4,10.8-59.9,34.8-82.4,47.5l34.6,6c8.3-4.5,43.3-23.2,54.2-29.9c32.5-20.1,54.4-29.1,71-29.1c15.6,0,28.5,7.8,41.7,25.2l4.2,5.5l4.8-4.9c16.5-16.7,38.4-25.2,65.3-25.2c12.6,0,23.9,4.7,30.2,12.5c5.1,6.4,6.8,14.7,4.7,23.9l-3,13.4l11.8-7c25.7-15.2,48.1-22.9,66.5-22.9c15.9,0,28.4,5.7,37.1,17c5.9,7.6,8.1,15.1,7,22.8c-2.1,14.2-15.6,29.9-41.1,47.9c-26.3,18.6-277.7,185.1-313.9,206c-5.5,3.2-11,6.6-16.3,9.9c-22.8,14.3-44.4,27.8-75.3,27.8c-20.4,0-42.7-6-68-18.3c-21.1-10.2-91.8-46.8-138.5-71l2.6-5.4l-2.7,5.3c-15.8-8.2-29.4-15.2-38.4-19.8c-18.9-9.7-32.3-13.8-44.8-13.8c-15.3,0-28.8,6.6-44.5,16.5l-41.1,26.7c-1.5,0.9-3.3,1.2-4.9,0.7c-1.7-0.5-3-1.7-3.8-3.3L41.9,652.2c-1.3-3,0-6.5,2.9-7.9c32.3-14.9,112-51.4,152.9-67.5c23.7-9.4,44.6-13.9,63.6-13.9c35.5,0,60.4,15.7,89.3,33.9l0.8,0.5c1.9,1.2,3.9,2.4,5.8,3.6c19,11.9,80.1,56.4,83.2,58.7l0.8,0.5c4.1,2.4,66.8,38.1,130.1,38.1c50.7,0,77.1,1.8,91.1,6.2c16.9,5.3,16.9,15.4,16.9,24.3c0,7.4-4.5,17.8-25.8,24.7c-12.3,4-25.7,5.5-31.6,5.7c-0.1,0-0.2,0-0.3,0H466.6c-51,0-124-29.7-124.8-30l-25.4-10.4l18.8,20c0.5,0.5,4.5,4.8,11.3,10.9l52.9,11c0.1,0,0.2,0,0.3,0.1c26.2,6.8,48.7,10.3,66.9,10.3H622c0.6,0,69.4-2.5,69.4-42.4c0-39.1-29.3-42.4-119.9-42.4c-57.8,0-117.1-32.5-123.7-36.2c-0.2-0.1-0.4-0.2-0.6-0.4c-6.6-4.8-64.6-47.1-83.5-58.9c-2.2-1.4-4.4-2.7-6.5-4.1c-29.3-18.4-56.9-35.8-95.8-35.8c-20.6,0-42.8,4.8-68,14.7c-51.1,20.1-159.6,70.6-164.2,72.8l-5.3,2.5l108.9,241.8l58.6-38.1C208.1,834,218.4,830,229.3,830L229.3,830z"/><path d="M520.1,443.7V478h-21.1v-34.3c-51.9-3.5-82.7-31.7-92.4-84.5l35.6-10.6c4.4,39.6,23.3,61.2,56.8,64.7V317c-58.1-10.6-86.2-36.1-84.5-76.5c3.5-44.9,31.7-69.1,84.5-72.6v-30.4h21.1v30.4c44,4.4,70.4,28.2,79.2,71.3l-34.3,10.6c-6.2-28.1-21.1-44.4-44.9-48.8v88.4c60.7,15,89.7,40.9,87.1,77.9C604.5,415.5,575.5,441.1,520.1,443.7L520.1,443.7z M498.9,284v-84.5c-29,3.5-44.4,17.6-46.2,42.2C451.9,262.9,467.3,277,498.9,284L498.9,284z M520.1,323.6v91.1c30.8-2.6,46.6-18,47.5-46.2C568.4,346.5,552.6,331.5,520.1,323.6L520.1,323.6z"/></g>
</svg>